General
Complete name                    : Tanu Weds Manu 2011 DVDRip XviD AC3 E-Subs - VeDesi.avi
Format                           : AVI
Format/Info                      : Audio Video Interleave
File size                        : 1.30 GiB
Duration                         : 1h 59mn
Overall bit rate                 : 1 557 Kbps
Writing application              : VirtualDubMod 1.5.10.2 (build 2540/release)
Writing library                  : VirtualDubMod build 2540/release

Video
ID                               : 0
Format                           : MPEG-4 Visual
Format profile                   : Advanced Simple@L5
Format settings, BVOP            : 2
Format settings, QPel            : No
Format settings, GMC             : No warppoints
Format settings, Matrix          : Default (H.263)
Codec ID                         : XVID
Codec ID/Hint                    : XviD
Duration                         : 1h 59mn
Bit rate                         : 1 164 Kbps
Width                            : 640 pixels
Height                           : 272 pixels
Display aspect ratio             : 2.35:1
Frame rate                       : 23.976 fps
Color space                      : YUV
Chroma subsampling               : 4:2:0
Bit depth                        : 8 bits
Scan type                        : Progressive
Compression mode                 : Lossy
Bits/(Pixel*Frame)               : 0.279
Stream size                      : 993 MiB (75%)
Writing library                  : XviD 1.2.1 (UTC 2008-12-04)

Audio
ID                               : 1
Format                           : AC-3
Format/Info                      : Audio Coding 3
Mode extension                   : CM (complete main)
Codec ID                         : 2000
Duration                         : 1h 59mn
Bit rate mode                    : Constant
Bit rate                         : 384 Kbps
Channel(s)                       : 6 channels
Channel positions                : Front: L C R, Side: L R, LFE
Sampling rate                    : 48.0 KHz
Bit depth                        : 16 bits
Compression mode                 : Lossy
Stream size                      : 328 MiB (25%)
Alignment                        : Split accross interleaves
Interleave, duration             : 42 ms (1.00 video frame)
Interleave, preload duration     : 500 ms

Screen Shots: 
http://www.picasaindia.com/images/30257172749456906500.png 
http://www.picasaindia.com/images/88817874823830419784.png 
http://www.picasaindia.com/images/16379067489913512148.png 
http://www.picasaindia.com/images/45042153836448049789.png 
http://www.picasaindia.com/images/07297511894492751867.png 
http://www.picasaindia.com/images/98511437057856390557.png 
http://www.picasaindia.com/images/76367118893625202243.png 
http://www.picasaindia.com/images/91748034391710425291.png